<?xml version="1.0" encoding="UTF-8"?>
<svg width="522px" height="242px" viewBox="0 0 522 242" version="1.1" xmlns="http://www.w3.org/2000/svg" xmlns:xlink="http://www.w3.org/1999/xlink">
    <!-- Generator: Sketch 42 (36781) - http://www.bohemiancoding.com/sketch -->
    <title>Page 1 Copy 2</title>
    <desc>Created with Sketch.</desc>
    <defs></defs>
    <g id="Materiales" stroke="none" stroke-width="1" fill="none" fill-rule="evenodd">
        <g id="Page-1-Copy-2" fill="#FFFFFF">
            <g id="Group-37">
                <g id="Group-4">
                    <path d="M50.214,166.8663 L93.043,207.6293 C98.568,197.5693 103.863,187.0673 108.752,176.6573 L74.34,143.9053 L50.214,166.8663 Z" id="Fill-27"></path>
                    <path d="M69.2275,139.0395 L15.2315,87.6485 L4.4545,97.9045 C7.0205,108.9205 10.8165,121.1295 15.4625,133.7915 L45.1015,162.0015 L69.2275,139.0395 Z" id="Fill-28"></path>
                    <path d="M125.3325,129.6943 L98.2975,155.4253 L112.3675,168.8163 C118.2775,155.7573 123.4655,143.0683 127.5825,131.8353 L125.3325,129.6943 Z" id="Fill-29"></path>
                    <path d="M92.2235,149.6441 L119.0315,124.1291 L99.5205,105.5591 C86.4915,116.5631 70.3115,115.5731 70.3115,115.5731 C70.3115,115.5731 60.6825,115.1411 50.7255,110.0081 L50.6515,110.0781 L92.2235,149.6441 Z" id="Fill-30"></path>
                    <path d="M137.6661,94.3592 C137.5961,75.5292 115.8171,77.4282 111.5511,88.1972 C109.7051,93.0392 107.3321,97.0132 104.6701,100.2992 L130.1661,124.5652 C134.9171,110.7482 137.6861,99.8552 137.6661,94.3592" id="Fill-31"></path>
                    <path d="M0.8138,73.8162 C1.0048,78.3792 1.6108,83.4322 2.5918,88.8862 L9.6198,82.1972 L0.8138,73.8162 Z" id="Fill-32"></path>
                    <path d="M29.0335,72.0435 C29.0335,41.2405 58.7605,22.8875 83.4195,30.0625 C99.0285,34.6045 105.8585,45.3985 108.6555,49.5125 C111.4525,53.6255 119.3665,57.9575 126.7465,53.9475 C134.1265,49.9375 133.8525,41.7165 131.7355,37.2705 C129.6185,32.8255 112.4775,0.0775 71.9815,0.0775 C34.1355,0.0775 4.8045,26.3405 1.1265,62.9735 L34.4315,94.6725 C31.1605,88.8755 29.0335,81.4915 29.0335,72.0435" id="Fill-33"></path>
                    <path d="M56.0648,218.1574 C61.3818,226.8384 66.7438,234.7954 71.9808,241.6644 C77.7398,233.6044 83.4838,224.4614 89.0438,214.7594 L74.3398,200.7644 L56.0648,218.1574 Z" id="Fill-34"></path>
                    <path d="M44.4684,172.3346 L35.6284,180.7486 C40.8184,191.3316 46.3084,201.6076 51.9024,211.1816 L68.5944,195.2966 L44.4684,172.3346 Z" id="Fill-35"></path>
                    <path d="M22.2721,151.2092 C25.3641,158.6722 28.6821,166.1752 32.1761,173.5852 L38.9791,167.1102 L22.2721,151.2092 Z" id="Fill-36"></path>
                </g>
            </g>
            <g id="Group-2" transform="translate(190.000000, 62.000000)">
                <path d="M26.264,7.87 L26.136,7.87 L16.786,30.007 L35.169,30.007 L26.264,7.87 Z M23.847,1 L28.872,1 L48.019,46.036 L41.785,46.036 L37.205,34.968 L14.687,34.968 L10.044,46.036 L4,46.036 L23.847,1 Z" id="Fill-7"></path>
                <polygon id="Fill-8" points="53 1 59.043 1 72.909 38.021 73.037 38.021 87.348 1 93.01 1 75.39 46.036 70.237 46.036"></polygon>
                <polygon id="Fill-9" points="106 1 134.307 1 134.307 5.961 111.343 5.961 111.343 20.083 132.78 20.083 132.78 25.044 111.343 25.044 111.343 41.075 135.452 41.075 135.452 46.036 106 46.036"></polygon>
                <polygon id="Fill-10" points="151 1 157.743 1 183.823 38.403 183.951 38.403 183.951 1 189.294 1 189.294 46.036 182.552 46.036 156.471 8.633 156.343 8.633 156.343 46.036 151 46.036"></polygon>
                <polygon id="Fill-11" points="208 46.036 213.343 46.036 213.343 1 208 1"></polygon>
                <path d="M237.343,40.774 L247.521,40.774 C250.106,40.774 252.502,40.435 254.708,39.756 C256.913,39.078 258.821,38.028 260.433,36.607 C262.044,35.187 263.316,33.374 264.25,31.168 C265.182,28.964 265.649,26.313 265.649,23.217 C265.649,20.122 265.182,17.471 264.25,15.266 C263.316,13.062 262.044,11.249 260.433,9.827 C258.821,8.407 256.913,7.357 254.708,6.679 C252.502,6.001 250.106,5.66 247.521,5.66 L237.343,5.66 L237.343,40.774 L237.343,40.774 Z M232,0.699 L249.302,0.699 C250.786,0.699 252.354,0.869 254.009,1.208 C255.662,1.548 257.305,2.088 258.938,2.829 C260.57,3.572 262.14,4.537 263.645,5.725 C265.15,6.911 266.476,8.343 267.621,10.018 C268.766,11.694 269.678,13.623 270.357,15.806 C271.034,17.991 271.374,20.461 271.374,23.217 C271.374,25.974 271.034,28.445 270.357,30.628 C269.678,32.812 268.766,34.741 267.621,36.416 C266.476,38.092 265.15,39.523 263.645,40.709 C262.14,41.897 260.57,42.862 258.938,43.604 C257.305,44.346 255.662,44.888 254.009,45.227 C252.354,45.566 250.786,45.735 249.302,45.735 L232,45.735 L232,0.699 L232,0.699 Z" id="Fill-12"></path>
                <path d="M305.263,7.569 L305.137,7.569 L295.785,29.706 L314.168,29.706 L305.263,7.569 Z M302.846,0.699 L307.871,0.699 L327.018,45.735 L320.784,45.735 L316.204,34.667 L293.686,34.667 L289.043,45.735 L283,45.735 L302.846,0.699 Z" id="Fill-14"></path>
                <path d="M35.545,78.031 C34.457,76.708 33.121,75.69 31.536,74.98 C29.951,74.272 28.12,73.916 26.039,73.916 C23.957,73.916 22.029,74.318 20.256,75.123 C18.482,75.927 16.944,77.051 15.644,78.493 C14.343,79.936 13.326,81.65 12.594,83.636 C11.859,85.623 11.493,87.776 11.493,90.092 C11.493,92.459 11.859,94.622 12.594,96.585 C13.326,98.548 14.332,100.251 15.608,101.693 C16.886,103.136 18.387,104.26 20.114,105.063 C21.841,105.869 23.698,106.27 25.683,106.27 C27.954,106.27 29.964,105.797 31.715,104.85 C33.464,103.904 34.907,102.58 36.042,100.877 L45.266,107.76 C43.137,110.739 40.442,112.938 37.178,114.358 C33.913,115.777 30.555,116.487 27.103,116.487 C23.176,116.487 19.557,115.871 16.247,114.641 C12.935,113.412 10.074,111.651 7.662,109.356 C5.25,107.062 3.37,104.282 2.021,101.019 C0.674,97.755 0,94.114 0,90.092 C0,86.074 0.674,82.43 2.021,79.167 C3.37,75.903 5.25,73.124 7.662,70.83 C10.074,68.536 12.935,66.774 16.247,65.545 C19.557,64.315 23.176,63.699 27.103,63.699 C28.522,63.699 29.999,63.831 31.536,64.09 C33.073,64.351 34.587,64.764 36.078,65.331 C37.568,65.899 38.998,66.657 40.371,67.602 C41.742,68.549 42.971,69.706 44.059,71.078 L35.545,78.031 Z" id="Fill-16"></path>
                <path d="M74.968,79.314 L68.866,94.923 L81.14,94.923 L74.968,79.314 Z M70.71,64.699 L79.863,64.699 L101.715,114.931 L89.229,114.931 L84.9,104.289 L65.39,104.289 L61.204,114.931 L49,114.931 L70.71,64.699 Z" id="Fill-18"></path>
                <path d="M120.068,105.566 L130.002,105.566 C130.853,105.566 131.716,105.472 132.591,105.283 C133.466,105.094 134.258,104.763 134.968,104.29 C135.677,103.817 136.256,103.202 136.706,102.444 C137.155,101.689 137.38,100.766 137.38,99.678 C137.38,98.496 137.084,97.537 136.493,96.804 C135.901,96.071 135.156,95.516 134.258,95.137 C133.359,94.758 132.39,94.498 131.35,94.356 C130.309,94.214 129.339,94.144 128.441,94.144 L120.068,94.144 L120.068,105.566 Z M120.068,84.778 L128.085,84.778 C128.937,84.778 129.776,84.684 130.605,84.495 C131.431,84.306 132.176,83.997 132.839,83.572 C133.502,83.146 134.033,82.578 134.435,81.868 C134.838,81.16 135.039,80.308 135.039,79.315 C135.039,78.275 134.813,77.411 134.364,76.725 C133.915,76.04 133.336,75.508 132.626,75.129 C131.917,74.751 131.112,74.479 130.214,74.313 C129.315,74.147 128.441,74.065 127.589,74.065 L120.068,74.065 L120.068,84.778 Z M109,64.699 L127.731,64.699 C129.905,64.699 132.094,64.854 134.294,65.16 C136.493,65.468 138.468,66.083 140.219,67.005 C141.968,67.928 143.386,69.216 144.475,70.872 C145.563,72.528 146.107,74.728 146.107,77.47 C146.107,80.308 145.314,82.662 143.73,84.53 C142.145,86.398 140.052,87.734 137.451,88.539 L137.451,88.68 C139.107,88.918 140.608,89.378 141.957,90.064 C143.305,90.75 144.463,91.625 145.433,92.689 C146.402,93.753 147.147,94.995 147.668,96.414 C148.188,97.832 148.448,99.348 148.448,100.954 C148.448,103.604 147.88,105.815 146.746,107.589 C145.61,109.362 144.144,110.793 142.346,111.881 C140.549,112.97 138.526,113.75 136.281,114.222 C134.033,114.695 131.798,114.932 129.575,114.932 L109,114.932 L109,64.699 Z" id="Fill-20"></path>
                <polygon id="Fill-22" points="158 114.931 169.068 114.931 169.068 64.699 158 64.699"></polygon>
                <polygon id="Fill-24" points="182 64.699 193.068 64.699 193.068 104.714 213.573 104.714 213.573 114.931 182 114.931"></polygon>
                <path d="M234.068,104.714 L239.816,104.714 C242.37,104.714 244.747,104.455 246.946,103.934 C249.145,103.414 251.049,102.55 252.658,101.344 C254.264,100.137 255.53,98.554 256.453,96.591 C257.376,94.629 257.836,92.226 257.836,89.389 C257.836,86.93 257.376,84.79 256.453,82.968 C255.53,81.148 254.289,79.645 252.729,78.463 C251.168,77.281 249.333,76.394 247.23,75.802 C245.125,75.212 242.913,74.916 240.596,74.916 L234.068,74.916 L234.068,104.714 Z M223,64.699 L239.602,64.699 C243.622,64.699 247.442,65.149 251.061,66.047 C254.679,66.945 257.836,68.4 260.533,70.41 C263.229,72.421 265.368,75.033 266.954,78.25 C268.538,81.467 269.331,85.369 269.331,89.957 C269.331,94.025 268.561,97.608 267.025,100.705 C265.487,103.805 263.417,106.407 260.817,108.51 C258.215,110.615 255.212,112.211 251.806,113.299 C248.4,114.388 244.829,114.931 241.092,114.931 L223,114.931 L223,64.699 Z" id="Fill-25"></path>
                <path d="M288.493,90.092 C288.493,92.459 288.86,94.622 289.594,96.585 C290.326,98.548 291.378,100.251 292.751,101.693 C294.122,103.136 295.766,104.259 297.682,105.063 C299.597,105.868 301.737,106.269 304.102,106.269 C306.467,106.269 308.608,105.868 310.523,105.063 C312.44,104.259 314.082,103.136 315.454,101.693 C316.825,100.251 317.878,98.548 318.611,96.585 C319.345,94.622 319.712,92.459 319.712,90.092 C319.712,87.776 319.345,85.623 318.611,83.636 C317.878,81.65 316.825,79.936 315.454,78.492 C314.082,77.05 312.44,75.927 310.523,75.123 C308.608,74.318 306.467,73.916 304.102,73.916 C301.737,73.916 299.597,74.318 297.682,75.123 C295.766,75.927 294.122,77.05 292.751,78.492 C291.378,79.936 290.326,81.65 289.594,83.636 C288.86,85.623 288.493,87.776 288.493,90.092 M277,90.092 C277,86.073 277.674,82.43 279.022,79.167 C280.37,75.903 282.251,73.124 284.663,70.829 C287.075,68.536 289.936,66.774 293.247,65.544 C296.557,64.315 300.176,63.699 304.102,63.699 C308.028,63.699 311.647,64.315 314.958,65.544 C318.269,66.774 321.131,68.536 323.543,70.829 C325.956,73.124 327.835,75.903 329.184,79.167 C330.531,82.43 331.205,86.073 331.205,90.092 C331.205,94.113 330.531,97.755 329.184,101.019 C327.835,104.282 325.956,107.061 323.543,109.356 C321.131,111.651 318.269,113.411 314.958,114.641 C311.647,115.87 308.028,116.486 304.102,116.486 C300.176,116.486 296.557,115.87 293.247,114.641 C289.936,113.411 287.075,111.651 284.663,109.356 C282.251,107.061 280.37,104.282 279.022,101.019 C277.674,97.755 277,94.113 277,90.092" id="Fill-26"></path>
            </g>
        </g>
    </g>
</svg>