<?xml version="1.0" encoding="UTF-8"?>
<svg width="25px" height="23px" viewBox="0 0 25 23" version="1.1" xmlns="http://www.w3.org/2000/svg" xmlns:xlink="http://www.w3.org/1999/xlink">
    <!-- Generator: Sketch 39.1 (31720) - http://www.bohemiancoding.com/sketch -->
    <title>icono-close</title>
    <desc>Created with Sketch.</desc>
    <defs></defs>
    <g id="diseños" stroke="none" stroke-width="1" fill="none" fill-rule="evenodd">
        <g id="01-Login" transform="translate(-582.000000, -35.000000)" fill="#C3C3C3">
            <g id="icono-close" transform="translate(582.000000, 35.000000)">
                <path d="M12.6772762,9.11881911 L3.37377654,0.74191041 C2.62896649,0.0712804332 1.4892752,0.134424164 0.821079714,0.876530434 C0.148225691,1.62381053 0.212406589,2.76155726 0.954026628,3.42931494 L9.97506867,11.5518977 L0.954026628,19.6744804 C0.212406589,20.3422381 0.148225691,21.4799848 0.821079714,22.2272649 C1.4892752,22.9693712 2.62896649,23.0325149 3.37377654,22.3618849 L12.6772762,13.9849762 L21.9807758,22.3618849 C22.7255859,23.0325149 23.8652771,22.9693712 24.5334726,22.2272649 C25.2063267,21.4799848 25.1421458,20.3422381 24.4005257,19.6744804 L15.3794837,11.5518977 L24.4005257,3.42931494 C25.1421458,2.76155726 25.2063267,1.62381053 24.5334726,0.876530434 C23.8652771,0.134424164 22.7255859,0.0712804332 21.9807758,0.74191041 L12.6772762,9.11881911 Z" id="close"></path>
            </g>
        </g>
    </g>
</svg>