<?xml version="1.0" encoding="UTF-8"?>
<svg width="19px" height="12px" viewBox="0 0 19 12" version="1.1" xmlns="http://www.w3.org/2000/svg" xmlns:xlink="http://www.w3.org/1999/xlink">
    <!-- Generator: Sketch 41 (35326) - http://www.bohemiancoding.com/sketch -->
    <title>eye110</title>
    <desc>Created with Sketch.</desc>
    <defs></defs>
    <g id="Page-1" stroke="none" stroke-width="1" fill="none" fill-rule="evenodd">
        <g id="eye110" fill="#F46F2B">
            <g id="Capa_1">
                <path d="M9.5,0.0137704918 C5.3130761,0.0137704918 1.70450161,2.39803279 0.0468381565,5.83868852 C-0.00407288317,5.94295082 -0.00407288317,6.06491803 0.0468381565,6.17114754 C1.70450161,9.61180328 5.3130761,11.9960656 9.5,11.9960656 C13.6869239,11.9960656 17.2954984,9.61180328 18.9531618,6.17114754 C19.0040729,6.06688525 19.0040729,5.94491803 18.9531618,5.83868852 C17.2954984,2.39803279 13.6869239,0.0137704918 9.5,0.0137704918 Z M9.5,10.1390164 C7.13569132,10.1390164 5.22143623,8.28786885 5.22143623,6.00590164 C5.22143623,3.72196721 7.13772776,1.87278689 9.5,1.87278689 C11.8643087,1.87278689 13.7785638,3.72393443 13.7785638,6.00590164 C13.7785638,8.28786885 11.8622722,10.1390164 9.5,10.1390164 Z" id="Shape"></path>
                <ellipse id="Oval" cx="9.5" cy="6.00393443" rx="2.73901393" ry="2.64590164"></ellipse>
            </g>
        </g>
    </g>
</svg>